# xmcd
#
# Track frame offsets: 
#        150
#        12980
#        30862
#        43800
#        59967
#        77682
#        91972
#        107070
#        125515
#        139515
#
# Disc length: 2063 seconds
#
# Revision: 4
# Processed by: cddbd v1.5PL3 Copyright (c) Steve Scherf et al.
# Submitted via: ExactAudioCopy v0.95a4
#
DISCID=7f080d0a
DTITLE=Patty Loveless - On Down The Line
DYEAR=1990
DGENRE=Country
TTITLE0=Overtime
TTITLE1=The Night's Too Long
TTITLE2=Blue Memories
TTITLE3=Some Morning Soon
TTITLE4=You Can't Run Away From Your Heart
TTITLE5=On Down The Line
TTITLE6=I've Got To Stop Loving You (And Start Living Again)
TTITLE7=Looking In The Eyes Of Love
TTITLE8=I'm That Kind Of Girl
TTITLE9=Feelings Of Love
EXTD=
EXTT0=
EXTT1=
EXTT2=
EXTT3=
EXTT4=
EXTT5=
EXTT6=
EXTT7=
EXTT8=
EXTT9=
PLAYORDER=
